<svg xmlns="http://www.w3.org/2000/svg" viewBox="0 0 237.64 132.23"><defs><style>.cls-1{font-size:82.74px;font-family:Montserrat-SemiBold, Montserrat;font-weight:600;}.cls-2{letter-spacing:-0.02em;}.cls-3{fill:#ffe315;stroke:#0a0a0a;stroke-linecap:round;stroke-linejoin:round;stroke-width:2px;}</style></defs><title>profileAsset 3role</title><g id="Layer_2" data-name="Layer 2"><g id="Layer_1-2" data-name="Layer 1"><text class="cls-1" transform="translate(1.41 110.3)"><tspan class="cls-2">y</tspan><tspan x="46.58" y="0">ebo</tspan></text><path class="cls-3" d="M222,10.5c.33-2.41,1.17-4.46,3.39-5.55a2.13,2.13,0,0,1,1.45-.15,23.68,23.68,0,0,0,6.22.67,2.18,2.18,0,0,1,1.48.54,5.74,5.74,0,0,1,2,5.37c-2.2,20.11-4.29,40.23-6.43,60.34v0a2,2,0,0,1-2.27,1.7l-9.77-1a2.11,2.11,0,0,1-1.88-2.28q1.54-17.25,3.08-34.5a1,1,0,0,1,0-.17A192.22,192.22,0,0,0,222,10.71,1.48,1.48,0,0,1,222,10.5Z"/><path d="M216.05,72.2l13.57,1.42c-1.89,3.83-3.8,7.66-5.68,11.49-.6,1.23-1.22,2.43-2.89,2.11-1.39-.27-1.63-1.46-1.91-2.59Z"/><path d="M222,10.61a193.23,193.23,0,0,1-2.69,24.94c-3.91-1.13-5-3.84-4.64-7.66C215.3,21.32,216.25,15,222,10.61Z"/><path d="M233.84,5.45a24.4,24.4,0,0,1-7.65-.82c0-2.93,1.22-4.93,4.36-4.59S234.49,2.58,233.84,5.45Z"/><text class="cls-1" transform="translate(210.29 108.32)">.</text></g></g></svg>